# xmcd
#
# Track frame offsets: 
#        150
#        18395
#        37840
#        53302
#        71724
#        84399
#        99834
#        119669
#        135177
#        152204
#        165319
#        185236
#        201774
#        215179
#        231219
#        240610
#        258508
#        276874
#        295762
#        316401
#        334401
#
# Disc length: 4646 seconds
#
# Revision: 0
# Processed by: cddbd v1.5.2PL0 Copyright (c) Steve Scherf et al.
# Submitted via: ExactAudioCopyFreeDBPlugin 1.0
#
DISCID=2c122415
DTITLE=Various Artist - A woman's heart 20th anniversary collection
DYEAR=2012
DGENRE=Pop-Folk
TTITLE0=Mountains to the Sea - Mary Black with Imelda May
TTITLE1=Feet of a Dancer - Maura O’Connell
TTITLE2=Love me Please - Frances Black
TTITLE3=The West’s Awake - Lumiere (with Damien Dempsey)
TTITLE4=How’ya Horse - Sharon Shannon
TTITLE5=Non Smoking Single Female - Eleanor McEvoy
TTITLE6=I Cant Make You Love Me - Mary Coughlan
TTITLE7=Fall at your feet - Hermione Hennessy
TTITLE8=Galway Bay - Dolores Keane
TTITLE9=I’ve endured - Noriana Kennedy
TTITLE10=All the Lies that you told Me - Frances Black
TTITLE11=Whatever it Takes - Sinead Lohan
TTITLE12=Time - Michelle Ann Kelly
TTITLE13=If you Love Me - Maura O’Connell
TTITLE14=Top Dog Gaffo - Sharon Shannon
TTITLE15=Oh Jealous Heart - Hermione Hennessy
TTITLE16=Love must be Tough - Eleanor McEvoy
TTITLE17=Mary Mary - Mary Coughlan
TTITLE18=Roseville Fair - Gemma Hayes (with Liam Clancy)
TTITLE19=Wonderchild - Mary Black
TTITLE20=Secret of living - Eleanor McEvoy, Mary Coughlan, Gemma Hayes
TTITLE20=, Hermione Hennessy and Sharon Shannon
EXTD=20 Years - A New Woman's Heart Collection featuring Dolores Keane
EXTD=, Noriana Kennedy, Eleanor McEvoy, Sinead Lohan. Frances Black, G
EXTD=emma Hayes, Lumiere, Mary Black, Mary Coughlan, Maura O'Connell, 
EXTD=Sharon Shannon, Michelle Ann Kelly and Hermoine Hennessy
EXTT0=
EXTT1=
EXTT2=
EXTT3=
EXTT4=
EXTT5=
EXTT6=
EXTT7=
EXTT8=
EXTT9=
EXTT10=
EXTT11=
EXTT12=
EXTT13=
EXTT14=
EXTT15=
EXTT16=
EXTT17=
EXTT18=
EXTT19=
EXTT20=
PLAYORDER=
